<svg xmlns="http://www.w3.org/2000/svg" xml:space="preserve" width="1571px" height="567px" style="shape-rendering:geometricPrecision; text-rendering:geometricPrecision; image-rendering:optimizeQuality; fill-rule:evenodd; clip-rule:evenodd"
viewBox="0 0 1571 566.98"
 >
 <defs>
  <style type="text/css">
   <![CDATA[
    .fil5 {fill:none}
    .fil0 {fill:#FEFEFE}
    .fil2 {fill:#C5C6C6}
    .fil6 {fill:#2B2A29}
    .fil4 {fill:black}
    .fil1 {fill:#7D7F68}
    .fil3 {fill:#C7A008}
   ]]>
  </style>
    <clipPath id="id0">
     <path d="M1268.28 296.74c0.56,2.11 0.84,4.33 0.79,6.72 -0.14,3.05 -0.93,5.85 -2.1,8.47 2.4,-1.08 21.55,-7.03 14.25,-28.11 0.18,0.6 -13.15,12.93 -12.94,12.92z"/>
    </clipPath>
 </defs>
 <g id="Слой_x0020_1">
  <metadata id="CorelCorpID_0Corel-Layer"/>
  <g id="_1149401187488">
   <path class="fil0" d="M217.05 558.14l-8.5 -18.89 -108.6 -242.39 -2.23 -4.97 -4.93 2.28 -3.3 1.51 -19.33 9.49c-2.86,-4.77 -7.59,-12.8 -10.88,-18.35l-43.71 -73.88 -11.44 -19.28 18.92 -11.99c17.88,-11.4 38.09,-21.94 60.07,-31.33 43.76,-18.65 88.43,-28.5 129.16,-28.5 13.4,0 26.36,1.09 38.54,3.2 20.3,2.32 39.08,8.98 54.59,19.31 23.12,12.92 41.31,32.97 51.59,56.69 8.44,19.5 10.08,42.32 4.72,66.01l-3.15 13.91 11.57 -8.38c7.78,-5.65 16.24,-10.48 25.14,-14.35 15.39,-6.51 31.31,-9.83 47.25,-9.83 15.1,0 29.37,2.99 42.43,8.87l8.42 3.77 -0.85 -9.19 -3.66 -39.71 -0.58 -6.3 -6.14 1.6 -18.4 4.77 -3.23 -67.62 134.77 -43.06 -1.08 52.56 10.15 2.6 29.43 -56.41 88.14 78.19 3.69 3.27 3.58 -3.37c12.08,-11.35 26.4,-20.46 42.54,-27.07l6.75 -2.76 -4.62 -5.64 -15.9 -19.38 101.21 -116.65 53.01 79.09 -81.14 43.61 -18.02 9.69 20.46 0.44c38.46,0.81 72.53,17.08 95.89,45.81l8.46 10.43 5.45 6.69 -9.05 9.6 -6.03 6.4 -20.27 21.62 -3.77 4.02 4.09 3.68 18.99 17.1 7.37 6.62 1.57 -9.75 7.29 -45.14 1.86 -11.59 0.07 0.07 1.91 -11.84 10.89 -66.63 101.71 -0.01 0.76 -4.49 1.9 -11.41 87.49 0 21.2 133.87 1.38 8.67 7.1 -5.16c8.59,-6.23 18.08,-11.37 28.21,-15.24 13.48,-5.09 27.37,-7.69 41.23,-7.69 16.5,0 32.52,3.81 46.37,11.01 0.37,0.27 0.89,0.61 1.6,0.9l6.58 2.64 0.78 -7.06 1.58 -14.58 0.52 -4.79 -4.7 -1.04 -17.73 -3.97 -0.86 -69.78 135.26 29.77 10.16 50.21 10.5 0.21 10.48 -43.22 112.79 27.43 -115.26 347.39 -82.49 -25.9 -0.58 -32.01 -0.08 -4.59 -4.56 -0.63 -82.31 -11.61 4.67 -41.84 1.1 -9.95 -8.9 4.56c-4.22,2.15 -8.31,3.95 -12.16,5.37 -13.46,5.09 -27.24,7.66 -40.97,7.66 -3.97,0 -7.94,-0.21 -11.84,-0.66l-7.02 -0.78 1.09 6.98 5.81 36.8 -120.08 -21.17 -6.29 -54.61 -2.02 -17.5 -8.1 15.65 -13.82 26.66 -25.46 -46.98 -7.65 -14.12 -2.41 15.86 -5.54 36.38 -105.26 -16.56 8.16 -49.92 1.86 -11.45 -9.94 5.96c-17.23,10.32 -37.01,18.08 -60.47,23.76 -8.19,2 -16.75,3.38 -25.48,4.11l-4.94 0.41 0 99.15 -207.24 -102.43 -7.79 -3.84 0 8.68 0.15 87.61 -92.67 13.66 -3.9 -42.07 -1.05 -11.26 -8.08 7.93c-12.24,11.98 -26.04,21.27 -40.99,27.62 -15.3,6.5 -31.08,9.79 -46.9,9.79 -15.79,0 -30.64,-3.3 -44.12,-9.75 -24.97,-12.02 -42.98,-33.81 -50.72,-61.31 -3.68,-12.91 -4.68,-26.56 -2.96,-40.55l1.82 -14.92 -10.87 10.35c-7.68,7.29 -15.93,14.25 -24.57,20.62l-2.93 2.16 0.92 3.53 31.21 119.82 5.52 21.26 -20.9 6.64 -58.78 18.83 -19.68 6.29zm26.38 -321.66c-3.03,0 -6.15,0.27 -9.31,0.85l-4 0.76 -5.9 1.14 1.78 5.75 1.16 3.74 16.81 54.99 1.68 5.28 2.5 7.94 6.21 -5.53 4.13 -3.68c16.29,-14.63 22,-29.5 18.56,-48.24 -2.16,-11.26 -10.87,-16.86 -15.88,-19.2 -5.24,-2.52 -11.23,-3.8 -17.73,-3.8l-0.01 0zm450.55 1.81l-10.51 10.23 -27.66 26.88 -6.03 5.86 7.84 3.02 29.67 11.46 9.11 3.51 -1.88 -9.57c-2.45,-12.37 -3.08,-24.75 -1.94,-36.79l1.4 -14.6zm120.82 -30.58c-11.48,0 -22.58,4.94 -30.47,13.53 -11.97,13.07 -14.29,32.34 -5.79,47.95l2.25 4.23 3.63 6.77 5.11 -5.72 3.28 -3.64 40.59 -46.33 3.18 -3.68 5.12 -5.88 -7.3 -2.7 -4.55 -1.68c-4.76,-1.87 -9.88,-2.85 -15.06,-2.85l0.01 0z"/>
   <path class="fil1" d="M876.88 276.34c-0.39,0.34 -0.75,0.78 -1.06,1.23 0.41,-0.38 0.81,-0.7 1.23,-1.04l-0.17 -0.19z"/>
   <polygon class="fil1" points="911.87,243.93 932.14,222.31 925.2,229.67 925.41,228.74 919.27,235.21 899.03,256.77 918,273.83 921.43,252.58 930.88,261.03 "/>
   <polygon class="fil1" points="911.87,243.93 930.88,261.03 938.16,215.91 932.14,222.31 "/>
   <polygon class="fil1" points="659.56,279.25 659.87,279.37 "/>
   <g>
    <path class="fil2" d="M771.77 298.02c1.63,1.63 0.12,0.46 1.94,1.7l12.4 -8.74c-1.84,-1.3 -3.66,-2.7 -5.34,-4.26 -17.99,-16.39 -13.3,-53.26 -1.64,-73.44 -30.72,24.78 -29.13,62.93 -7.36,84.73l0 0.01zm0 0l0 0 0 0z"/>
   </g>
   <g>
    <path class="fil3" d="M921.43 318.65c-20.48,16.94 -43.81,27.98 -74.65,35.43 -6.75,1.55 -13.34,2.67 -19.81,3.24 -48.94,4.81 -90.01,-17.67 -105.59,-54.11 -1.94,-4.42 -3.43,-8.89 -4.56,-13.66 -7.22,-30.7 -1.06,-58.14 14.1,-79.64 1.51,-2.09 3.09,-4.08 4.75,-6.11 -0.78,0.66 -1.57,1.23 -2.21,1.85 -5.84,5.19 -10.99,10.88 -15.38,17.1 -15.19,21.5 -21.34,48.95 -14.06,79.6 1.11,4.77 2.58,9.3 4.49,13.62 15.58,36.54 56.66,58.99 105.56,54.22 6.52,-0.62 13.1,-1.7 19.84,-3.34 30.88,-7.44 54.2,-18.45 74.67,-35.37 5.01,-4.12 9.83,-8.6 14.5,-13.5l-0.43 -0.42c-0.46,0.41 -0.82,0.76 -1.22,1.09l0 0zm0 0l0 0 0 0z"/>
   </g>
   <polygon class="fil3" points="576.5,225.85 631.18,149 628.96,146.95 576.2,221.07 "/>
   <polygon class="fil3" points="938.16,215.91 930.88,261.04 921.43,252.58 918,273.83 899.03,256.77 919.27,235.21 925.41,228.74 925.2,229.67 932.14,222.31 "/>
   <polygon class="fil2" points="870.58,89.33 889.73,81.11 854.73,36.19 843.26,52.21 "/>
   <path class="fil2" d="M340.42 200.62c-88.39,-107.68 -247.65,-49.8 -304.89,0.56l2.24 3.87c13.15,-7.56 27.03,-14.38 41.62,-20.51 56.87,-24.29 111.07,-31.41 154.53,-23.8 15.37,1.76 31.64,6.32 45.8,15.79 19.6,10.98 34.46,26.6 43.15,46.61 15.41,35.45 1.83,82.58 -34.47,122.04 45.54,-41.77 76.7,-81.75 52.02,-144.56z"/>
   <g>
    <path class="fil2" d="M520.74 326.05c-0.41,-1.95 -0.82,-3.93 -1.46,-5.84 -4.97,-17.9 -15.67,-32.19 -29.69,-41.7 -22.69,-15.41 -54.36,-18.58 -85.92,-5.25 -16.61,7.18 -31.05,18.22 -42.47,31.42 8.78,-7.55 18.82,-13.84 29.65,-18.53 31.49,-13.37 63.16,-10.21 85.93,5.18 14.03,9.52 24.63,23.81 29.72,41.69 0.56,1.91 1,3.92 1.43,5.95 1.35,6.8 1.98,13.67 1.72,20.73 -0.66,20.62 -8.3,41.36 -21.01,59.08 -2.04,2.81 -4.2,5.43 -6.43,8.01 7.24,-6.24 13.69,-13.14 19.21,-20.89 12.76,-17.6 20.38,-38.38 21.05,-59.12 0.29,-6.92 -0.29,-13.92 -1.73,-20.73l0 0zm0 0l0 0 0 0z"/>
   </g>
   <g>
    <path class="fil2" d="M433.71 299.78c-0.11,0.19 12.82,-12.83 12.68,-12.83 -16.19,-0.62 -23.04,14.65 -23.61,15.85 3.33,-1.6 7,-2.65 10.93,-3.02l0 0zm0 0l0 0 0 0z"/>
   </g>
   <g>
    <path class="fil2" d="M464.22 318.45c0.66,2.2 1,4.38 1,6.77 0,3.37 -0.75,6.61 -2.11,9.59 2.58,-1.35 21.32,-10.43 14.06,-29.68 0.38,0.58 -13.42,13.26 -12.95,13.32l0 0zm0 0l0 0 0 0z"/>
   </g>
   <path class="fil2" d="M390.54 329.15c0,-7.91 13.56,-27.12 17.79,-33.53 -21.41,13.61 -30.63,31.98 -30.63,46.45 0,24.78 21.78,44.72 47.82,44.72 12.33,0 34.9,-6.51 49.65,-30.39 -7.74,5.08 -27.4,17.27 -37.71,17.27 -26.04,-0.01 -46.92,-19.59 -46.92,-44.52z"/>
   <polygon class="fil2" points="573.83,351.85 574.17,452.18 590.09,453.09 586.94,338.71 "/>
   <polygon class="fil2" points="482.43,160.83 482.75,169.74 558.21,147.27 563.81,243.37 576.4,225.72 573.71,129.29 "/>
   <polygon class="fil2" points="710.55,195.23 639.67,130.18 631.18,149 693.57,207.61 "/>
   <path class="fil2" d="M699.78 316.48l-83.23 -27.52 -12.13 12.8 82.91 33.18c9.41,17.72 23.65,32.9 41.6,43.99 17.36,10.62 37.21,16.99 58.23,19.01l0 40.95 12.85 6.41 4.07 -61.52 -104.3 -67.3z"/>
   <g>
    <path class="fil2" d="M833.42 304.9c20.44,-4.92 32.22,-15.59 42.37,-27.33 -7.61,6.25 -45.79,14.57 -52.21,16.74l-12.57 13.39c5.75,0.51 15.36,-1.04 22.41,-2.8l0 0zm0 0l0 0 0 0z"/>
   </g>
   <g>
    <path class="fil2" d="M796.25 163.38c-37.69,4.93 -57.33,36.58 -60.58,40.43 13.92,-11.76 31.36,-20.49 51.01,-25.14 46.63,-11.28 87.76,2.94 113.17,34.36l15.74 -13.31c-25.18,-30.88 -72.71,-47.58 -119.34,-36.34l0 0zm0 0l0 0 0 0z"/>
   </g>
   <path class="fil2" d="M922.65 317.56c4.55,-3.82 12.63,-7.69 16.93,-12.19l-50.47 -45.09c-3.86,4.62 -7.37,12.23 -12.08,16.24l45.62 41.04z"/>
   <path class="fil2" d="M1181.64 438.4c-52.95,-43.5 -49.78,-136.82 -23.8,-166.44l-23.32 -146.25 -51.02 6.59 -2.27 12.88 38.6 0 20.45 132.7c-26.02,29.7 -38.58,69.49 -29.89,105.91 6.72,28.16 24,50.94 48.9,64.12 2.5,1.37 5.08,2.57 7.74,3.7l0.33 1.95 15.17 2.39c0.01,-0.01 1.6,-16.28 -0.9,-17.55l0.01 0z"/>
   <polygon class="fil2" points="978.14,147.23 975.95,160.12 1034.14,160.12 1051.28,254.1 1064.19,241.06 1050.62,141.85 "/>
   <polygon class="fil2" points="1077.76,329.67 1058.97,378.21 1063.63,390.84 1090.5,316.92 "/>
   <polygon class="fil2" points="1021.97,299.1 1009.04,312.02 995.16,399.68 1008.44,404.76 "/>
   <path class="fil2" d="M1283.33 271.1c7.62,5.44 14.12,12.32 19.01,20.5 3.86,6.28 6.78,13.31 8.64,21.04 6.34,26.34 -1.24,54.84 -18,77.71 -1.68,2.33 -3.53,4.57 -5.31,6.77 6.8,-5.85 89.46,-66.82 8.7,-146.9 -88.82,-29.28 -122.45,28.67 -125.58,32.34 9.38,-7.97 20.21,-14.57 31.94,-19.06 30.05,-11.39 59.63,-7.44 80.6,7.6z"/>
   <g>
    <path class="fil2" d="M1238.56 276.87c0.25,0.57 12.75,-13.03 13,-13.03 -15.8,0.66 -23.4,8.29 -22.61,11.8 -0.95,1.37 -1.72,2.72 -2.33,4.22 3.38,-1.68 9.61,-2.97 11.94,-2.99l0 0zm0 0l0 0 0 0z"/>
   </g>
   <path class="fil3" d="M1268.28 296.74c0.56,2.11 0.84,4.33 0.79,6.72 -0.14,3.05 -0.93,5.85 -2.1,8.47 2.4,-1.08 21.55,-7.03 14.25,-28.11 0.18,0.6 -13.15,12.93 -12.94,12.92z"/>
   <path class="fil2" d="M1268.28 296.74c0.56,2.11 0.84,4.33 0.79,6.72 -0.14,3.05 -0.93,5.85 -2.1,8.47 2.4,-1.08 21.55,-7.03 14.25,-28.11 0.18,0.6 -13.15,12.93 -12.94,12.92z"/>
   <g style="clip-path:url(#id0)">
    <g>
     <polygon id="1" class="fil4" points="1474.96,541.44 1474.96,527.4 1469.71,527.4 1469.71,525.52 1482.33,525.52 1482.33,527.4 1477.07,527.4 1477.07,541.44 "/>
     <path class="fil4" d="M1484.44 541.44l0 -15.92 3.17 0 3.76 11.27c0.35,1.05 0.6,1.84 0.76,2.37 0.19,-0.59 0.47,-1.44 0.86,-2.56l3.81 -11.08 2.84 0 0 15.91 -2.03 0 0 -13.31 -4.63 13.31 -1.91 0 -4.6 -13.54 0 13.54 -2.03 0 0 0.01z"/>
    </g>
   </g>
   <path class="fil5" d="M1268.28 296.74c0.56,2.11 0.84,4.33 0.79,6.72 -0.14,3.05 -0.93,5.85 -2.1,8.47 2.4,-1.08 21.55,-7.03 14.25,-28.11 0.18,0.6 -13.15,12.93 -12.94,12.92z"/>
   <g>
    <g>
     <path class="fil6" d="M1226.31 363.67c17.88,0.76 37.65,-10.22 51.83,-29.63 -36.38,7.46 -74.63,-53.12 -70.8,-59.06 -13.74,9.97 -25.91,29.19 -26.47,42.63 -0.94,24.9 19.34,45.02 45.44,46.06l0 0zm0 0l0 0 0 0z"/>
    </g>
    <polygon class="fil6" points="1425.69,521.52 1434.21,527.23 1538.29,214.87 1460.4,196.86 1459.42,215.16 1522.26,229.1 "/>
    <polygon class="fil6" points="1302.08,163.38 1302.77,180.83 1385.58,197.46 1417.47,348.67 1430.38,335.67 1399.99,182.9 "/>
    <polygon class="fil6" points="1365.82,335.7 1343.01,464.65 1356.14,468.91 1378.78,323 "/>
    <polygon class="fil6" points="291.07,511.97 252.33,371.53 238.15,381.44 274.05,516 "/>
    <path class="fil6" d="M281.02 300.78c-8.94,9.48 -28.75,27.91 -40.04,35.18l-6.85 -22.01 -15.01 -48.24 -9.54 -32.67 -9.3 11.95 9.5 32.71 15.01 48.2 6.82 22.07c15.45,-9.95 37.93,-28.63 49.41,-47.19z"/>
    <path class="fil6" d="M829.89 217.73c-12.22,-4.7 -29.55,-3.28 -38.9,6.95 -2.17,2.37 -6.39,8.43 -7.74,11.13 9.06,-7.2 25.17,-8.75 35.73,-4.94l10.91 -13.14z"/>
    <g>
     <path class="fil6" d="M269.84 261.32c-1.38,-7.22 -8.45,-12.95 -11.91,-14.54 -6.22,-3 -16.93,-3.46 -24.77,-2.04 1.41,4.87 3.02,10.57 3.71,12.91 3.18,0.44 8.4,1.39 11.14,2.64 3.44,1.65 9.45,5.56 10.84,12.82 1.88,9.7 1.39,18.77 -2.66,26.13 11.09,-10.88 16.46,-22.71 13.65,-37.92l0 0zm0 0l0 0 0 0z"/>
    </g>
    <path class="fil6" d="M289.25 261.12c-5.32,-28.55 -42.65,-44.28 -79.66,-24.1l9.54 32.67 15.01 48.29 6.84 22c27.76,-17.87 55.68,-39.32 48.27,-78.86zm-36.77 43.89c-4.04,-13.19 -12.9,-41.67 -12.9,-41.67 0.04,0.14 -1.75,-6.09 -3.87,-13.21 7.84,-1.41 15.39,-0.84 21.59,2.14 3.47,1.65 9.56,5.51 10.89,12.81 3.08,16.41 -2.46,28.13 -15.71,39.93l0 0z"/>
    <path class="fil6" d="M849.26 215.83c-20.68,-18.98 -52.85,-17.51 -71.71,3.15 -18.98,20.64 -17.5,52.82 3.22,71.72 1.69,1.62 3.51,2.96 5.35,4.27l66.73 -75.58c-1.18,-1.23 -2.36,-2.45 -3.59,-3.57l0 0.01zm-63.01 53.15c-6.52,-11.98 -5.2,-27.2 4.56,-37.86 9.38,-10.23 23.77,-13.14 36.03,-8.41l-40.59 46.27z"/>
    <polygon class="fil6" points="938.43,207.52 901.48,243.13 936.59,274.66 "/>
    <g>
     <path class="fil6" d="M1281.12 283.82c0.56,2.24 0.86,4.46 0.78,6.82 -0.62,14.12 -13.89,25.02 -29.72,24.28 -15.8,-0.54 -28.23,-12.54 -27.61,-26.62 0.53,-13.2 12.3,-23.65 26.82,-24.32 -2.76,-0.63 -5.64,-0.95 -8.65,-1.05 -26.47,-1.15 -48.09,17.6 -49.01,40.93 -1.03,24.96 18.99,45.31 45.03,46.44 26.51,1.06 48.13,-17.75 49.18,-42.59 0.32,-8.62 -2.22,-16.87 -6.82,-23.89l0 0zm0 0l0 0 0 0z"/>
    </g>
    <g>
     <path class="fil6" d="M478.12 312.32c0,14.18 -12.9,25.54 -28.7,25.54 -15.82,0 -28.68,-11.38 -28.68,-25.54 0,-13.22 11.3,-24.11 25.79,-25.37 -2.77,-0.5 -5.66,-0.79 -8.65,-0.79 -26.46,0 -47.34,19.63 -47.34,43 0,24.95 20.89,44.51 46.93,44.51 26.48,0 47.34,-19.58 47.34,-44.51 0,-8.63 -2.85,-16.77 -7.75,-23.46 0.65,2 1.06,4.24 1.06,6.62l0 0zm0 0l0 0 0 0z"/>
    </g>
    <path class="fil6" d="M1445.75 169.11l-11.76 48.44 -10.85 -53.63 -145.33 -31.99 1.02 80.81 21.9 4.91 -1.59 14.57c-0.28,-0.11 -0.46,-0.28 -0.61,-0.4 -27.15,-14.33 -60.81,-15.8 -92.48,-3.83 -10.62,4.06 -20.5,9.41 -29.45,15.9l-21.92 -138.4 -96.66 0 -2.66 15.92 -101.73 0 -11.62 71.14 -8.43 -10.42c-24.65,-30.29 -60.39,-46.97 -99.98,-47.8l86.37 -46.42 -60.23 -89.88 -108.81 125.39 18.78 22.9c-17.01,6.95 -31.87,16.54 -44.19,28.12l-93.31 -82.78 -32.62 62.53 1.25 -60.1 -145.88 46.61 3.74 78.38 24.82 -6.44 3.66 39.72c-28.35,-12.74 -62.44,-12.43 -94.05,0.93 -9.37,4.08 -18.1,9.1 -26.15,14.94 5.47,-24.2 4.17,-48.06 -5.05,-69.33 -10.89,-25.14 -30.05,-45.91 -53.54,-59.02 -16.47,-10.97 -36.1,-17.81 -56.64,-20.13 -50.48,-8.82 -111.09,0.23 -170.75,25.65 -21.93,9.36 -42.39,19.97 -60.84,31.73l-23.32 14.79 14.08 23.78 43.71 73.87c0,0 13.37,22.64 13.46,22.62l23.64 -11.62 3.29 -1.5 108.61 242.39 10.48 23.29 24.25 -7.81 58.76 -18.82 25.75 -8.19 -6.79 -26.22 -31.21 -119.8c8.98,-6.64 17.35,-13.68 25.09,-21.07 -1.74,14.31 -0.83,28.81 3.11,42.68 8.16,29.05 27.18,51.99 53.58,64.7 28.5,13.7 63.28,13.74 95.46,0.09 16.14,-6.84 30.48,-16.84 42.65,-28.73l4.43 47.71 102.91 -15.16 -0.17 -92.26 215.03 106.27 0 -102.9c8.63,-0.73 17.44,-2.09 26.29,-4.27 23.68,-5.72 43.95,-13.57 61.96,-24.36l-9.03 55.27 115.94 18.25 6.37 -41.72 30.28 55.93 18.51 -35.66 6.76 58.56 131.46 23.18 -6.98 -44.23c18,2.03 36.97,-0.38 55.29,-7.29 4.33,-1.61 8.62,-3.56 12.72,-5.65l-5.25 47.05 87.49 12.34 0.65 35.88 91.23 28.63 118.77 -357.99 -123.67 -30.05zm-513.61 53.21l6.02 -6.41 -7.28 45.13 -19 -17.11 20.26 -21.61zm-77.04 -184.38l31.85 43.27 -91.06 45.14 -6.29 -9.56 65.5 -78.85zm-602.95 333.62l36.33 139.4 -58.8 18.78 -120.65 -269.46c-6.57,3.45 -18.68,9.24 -29.82,14.69l-43.69 -73.8c17.37,-11.1 36.42,-20.93 56.69,-29.49 56.89,-24.2 111.16,-31.42 154.56,-23.75 15.36,1.73 31.62,6.26 45.85,15.71 19.53,11 34.49,26.66 43.1,46.6 21.02,48.57 -14.09,118.45 -83.57,161.32zm270.33 -24.8c-0.67,20.75 -8.3,41.55 -21.05,59.14 -12.14,17.01 -29.1,31.06 -49.05,39.65 -51.01,21.61 -102.02,0 -115.65,-48.43 -13.19,-46.83 17.52,-102.58 66.95,-123.87 31.56,-13.33 63.23,-10.17 85.92,5.25 14.02,9.5 24.7,23.8 29.7,41.71 0.62,1.89 1.04,3.89 1.45,5.84 1.43,6.81 2.01,13.82 1.73,20.71zm277.55 98.54l-213.36 -106.71 0.37 111.8 -55.19 7.53 -3.84 -46.08c17.04,-29.22 23.27,-63.66 14.37,-95.24 -4.87,-17.35 -13.89,-32.41 -26.14,-44.49l-7.93 -93.97 -24.78 6.43 -1.09 -23.77 88.63 -26.39 5.45 91.42 65.29 -91.74 63.83 60.79 -89.27 94.05 83.87 33.17c9.37,17.76 23.66,32.84 41.59,43.96 17.34,10.69 37.19,17.02 58.21,19.09l-0.01 60.15zm-110.79 -154.6l-29.68 -11.46 27.67 -26.88c-1.18,12.34 -0.58,25.25 2.01,38.33l0 0.01zm232.19 27.95c-20.48,16.94 -43.81,27.98 -74.65,35.43 -6.75,1.55 -13.34,2.67 -19.81,3.24 -48.94,4.81 -90.01,-17.67 -105.59,-54.11 -1.94,-4.42 -3.43,-8.89 -4.56,-13.66 -7.22,-30.7 -1.06,-58.14 14.1,-79.64 4.37,-6.27 9.56,-11.99 15.38,-17.14 14.29,-12.75 32.53,-22.01 53.26,-27 46.62,-11.24 87.69,2.99 112.87,33.88l-88.85 94.58c6.02,1.13 15.6,-0.45 22.68,-2.14 21.15,-5.16 32.99,-16.4 43.43,-28.63l35.5 31.94 10.76 9.72c-4.66,4.82 -9.56,9.37 -14.52,13.53l0 0zm188.5 126.21l-19.33 -128.03 -27.33 70.64 -40.93 -88.27 -0.46 0 -16.18 102.22 -68.2 -11.87 9.59 -57.05c2.58,-2.42 5.11,-4.85 7.59,-7.4l22.11 -22.78 -21.49 -19.24 22.83 -135.85 68.83 0 17.22 94.05 19.31 -108.99 49.23 0 20.43 132.78c-25.99,29.61 -38.62,69.42 -29.93,105.84 6.71,28.23 24.06,50.97 48.93,64.25 2.5,1.26 5.1,2.51 7.77,3.59l2.6 17.21 -72.59 -11.1zm169.98 -41.72c-7.52,5.36 -15.79,9.9 -24.7,13.2 -17.57,6.69 -35.04,8.08 -50.6,4.98 -10.85,-2.14 -20.75,-6.37 -29.36,-12.5 -13.69,-9.9 -23.78,-24.54 -28.22,-42.9 -5.19,-22.07 -0.41,-45.63 11.46,-66.27 5.92,-10.09 13.51,-19.57 22.49,-27.74 10.03,-8.98 21.64,-16.34 34.56,-21.31 30.08,-11.22 59.75,-7.35 80.62,7.66 7.69,5.45 14.06,12.37 19.08,20.43 3.81,6.36 6.78,13.38 8.56,21.03 6.4,26.49 -1.22,54.88 -17.93,77.74 -7.16,9.76 -15.89,18.51 -25.96,25.68l0 0zm153.6 120.68l-50.44 -15.02 -4.4 -185.97 -25.37 143.47 -55.02 -8.78 3.93 -41.31c35.93,-30.37 54.98,-78.26 44.54,-121.67 -4.58,-19.22 -14.46,-35.96 -28.4,-48.68l4.66 -48.71 -20.8 -5.54 1.38 -26.01 94.81 19.05 31.88 151.17 32.69 -135.52 72.13 15.93 -101.59 307.59z"/>
   </g>
  </g>
 </g>
</svg>
